<?xml version="1.0" encoding="UTF-8"?>
<!DOCTYPE svg PUBLIC "-//W3C//DTD SVG 1.1//EN" "http://www.w3.org/Graphics/SVG/1.1/DTD/svg11.dtd">
<!-- Creator: CorelDRAW 2017 -->
<svg xmlns="http://www.w3.org/2000/svg" xml:space="preserve" width="16mm" height="16mm" version="1.1" style="shape-rendering:geometricPrecision; text-rendering:geometricPrecision; image-rendering:optimizeQuality; fill-rule:evenodd; clip-rule:evenodd"
viewBox="0 0 1600 1600"
 xmlns:xlink="http://www.w3.org/1999/xlink">
 <defs>
  <style type="text/css">
   <![CDATA[
    .fil0 {fill:#EF7F1A}
   ]]>
  </style>
 </defs>
 <g id="Слой_x0020_1">
  <metadata id="CorelCorpID_0Corel-Layer"/>
  <path class="fil0" d="M460.22 178.95c-4.63,11.08 -6.84,23.13 -9.43,35.61 -7.4,35.69 -17.5,76.66 -21.03,112.57 -1.36,13.76 -4.69,23.93 -6.31,37.35 -4.49,37.14 -13.6,73.8 -22.16,111.94 -15.95,71.01 -33.41,142.42 -66.29,209.93 -8.96,18.4 -7.54,14.81 -37.08,20.2 -16.16,2.95 -39.83,10.21 -57.66,10.43 -1.87,-12.55 -15.23,-28.37 -21.76,-40.66 -30.92,-58.1 -43.54,-125.08 -57.11,-186.11 -8.71,-39.2 -14.2,-81.56 -28.28,-120.44 -2.33,-6.45 -3.21,-16.97 -12,-20.56l-30.55 137.91c-3.09,28 -17.37,94.42 -18.33,115.78 -1.32,29.51 -8.23,57.7 -12.42,88.43 -5.16,37.88 -15.07,77.39 -15.07,117.59 31.62,4.1 61.18,13.64 89.61,21.56 70.65,19.68 131.8,44.18 193.23,71.09 40.38,17.69 79.38,40.05 112.16,61.78l30.1 18.98c43.65,29.81 85.26,62.22 116.66,96.73 29.23,32.12 58.98,63.78 81.1,97.82 64.08,98.62 89.87,191.68 109.89,296.3l7.65 50.23c2.19,9.19 -0.5,10.14 14.18,10.82 11.32,-27.07 17.29,-93.06 25.34,-127.2 9.75,-41.34 23.66,-81.28 38.57,-121.52 13.8,-37.25 34.61,-75.19 58.69,-110.31l18.32 -25.54c3.11,-4.25 5.8,-6.91 9.83,-11.55 4.28,-4.93 5.85,-8.15 10.11,-13.1 14.16,-16.44 28.19,-32.21 43.67,-47.17 7.84,-7.58 14.24,-13.75 22.5,-21.51 55.59,-52.27 124.6,-94.74 201.41,-138.03 6.99,-3.95 8.21,-4.44 16.3,-7.95 80.46,-34.83 110.62,-51.88 211.07,-79.87 28.43,-7.92 57.99,-17.46 89.61,-21.56 0,-22.13 -4.99,-37.86 -6.11,-57.89 -1.03,-18.13 -6.57,-40.4 -8.96,-58l-16.79 -116.64c-5.04,-19.53 -4.16,-38.37 -9.16,-57.89 -2.04,-7.94 -4.01,-20.98 -4.72,-28.02l-9.53 -57.68c-4.59,-26.7 -10.55,-58.33 -21.1,-83.59 -13.02,5.32 -16.56,33.92 -18.58,44.14l-33.1 144.99c-6.28,31.65 -16.33,62.81 -27.44,93.68 -5.31,14.78 -11.45,30.72 -18.25,44.31 -6.76,13.53 -19.32,29.16 -24.83,42.35 -13.64,-4.02 -37.5,-8.75 -52.35,-11.69 -29.81,-5.89 -29.71,-1 -38.7,-19.29 -11.35,-23.07 -19.41,-42.93 -28.33,-67.64 -29.97,-82.95 -46.07,-170.44 -60.59,-253.98l-10.38 -57.21c-10.08,-40.91 -10.64,-91.85 -26.56,-129.92 -9.26,3.78 -6.99,6.14 -8.67,15.6 -1.37,7.73 -2.65,11.89 -3.44,18.51 -7.61,63.3 -22.1,125.4 -30.89,188.8l-14.48 75.36c-13.67,60.48 -24.06,120.09 -48.2,179.16 -9.19,22.51 -2.33,20.26 -36.97,17.54 -11.4,-0.89 -19.11,-1.03 -34.64,-1.15 -34.78,-0.29 -33.87,-5.6 -46.01,-37.36 -16.09,-42.11 -37.77,-97.42 -42.48,-141.47l-13.98 -73.94c-3.21,-12.84 -2.26,-25 -5.64,-37.72 -7.9,-29.71 -9.47,-84.63 -14.15,-116.41 -4.8,-32.58 -5.07,-64.83 -11.61,-97.38 -1.34,-6.65 0.37,-13.42 -0.61,-20.1 -1.59,-10.8 -5.89,-28 -6.06,-39.18 -0.25,-16.42 -6.93,-65.42 -15.16,-74.98 -12.85,5.25 -18.46,62.31 -18.3,71.53 0.18,10.47 -3.11,28.94 -5.31,37.9l-26.12 234.03c-2.63,11.13 -3.73,25.1 -5.49,37.8 -3.4,24.48 -10.68,51.22 -14.77,75.2 -9.25,54.22 -24.84,108.59 -49.76,159.55 -7.29,14.9 -2.77,21.41 -33.06,22.44 -81.22,2.75 -66.27,7.25 -75.7,-12.23 -10.84,-22.43 -17.13,-46.37 -24.16,-69.97 -23.77,-79.7 -49.2,-219.9 -58.83,-299.22 -2.89,-23.77 -10.05,-81.55 -17.71,-104.2 -2.93,-8.64 3.49,-3.89 -6.84,-8.11z"/>
 </g>
</svg>
